<?xml version="1.0" encoding="UTF-8" standalone="no"?>
<svg xmlns="http://www.w3.org/2000/svg" xmlns:xlink="http://www.w3.org/1999/xlink" contentScriptType="application/ecmascript" contentStyleType="text/css" height="516px" preserveAspectRatio="none" style="width:724px;height:516px;" version="1.1" viewBox="0 0 724 516" width="724px" zoomAndPan="magnify"><defs><filter height="300%" id="f1q78rldpujh9f" width="300%" x="-1" y="-1"><feGaussianBlur result="blurOut" stdDeviation="2.0"/><feColorMatrix in="blurOut" result="blurOut2" type="matrix" values="0 0 0 0 0 0 0 0 0 0 0 0 0 0 0 0 0 0 .4 0"/><feOffset dx="4.0" dy="4.0" in="blurOut2" result="blurOut3"/><feBlend in="SourceGraphic" in2="blurOut3" mode="normal"/></filter></defs><g><text fill="#000000" font-family="sans-serif" font-size="18" lengthAdjust="spacingAndGlyphs" textLength="110" x="311" y="16.708">Card Models</text><!--class CardRarity--><rect fill="#FEFECE" filter="url(#f1q78rldpujh9f)" height="99.2188" id="CardRarity" style="stroke: #A80036; stroke-width: 1.5;" width="96" x="443.5" y="28.9531"/><ellipse cx="458.5" cy="44.9531" fill="#EB937F" rx="11" ry="11" style="stroke: #A80036; stroke-width: 1.0;"/><path d="M456.7969,45.8281 L456.7969,48.25 L461.1563,48.25 L461.1563,47.375 C461.1563,46.8906 461.1875,46.75 461.2969,46.5938 C461.4688,46.3438 461.7344,46.2344 462,46.2344 C462.2813,46.2344 462.5625,46.3906 462.7344,46.6406 C462.8125,46.7969 462.8438,46.9375 462.8438,47.375 L462.8438,49.9531 L454.8438,49.9531 C454.4531,49.9531 454.2188,49.9063 454.0781,49.7813 C453.8594,49.625 453.7188,49.375 453.7188,49.1094 C453.7188,48.8125 453.875,48.5469 454.125,48.375 C454.2813,48.2656 454.4375,48.25 454.8438,48.25 L455.0938,48.25 L455.0938,41.7344 L454.8438,41.7344 C454.4219,41.7344 454.2344,41.7031 454.0781,41.5938 C453.8594,41.4219 453.7188,41.1719 453.7188,40.8906 C453.7188,40.6094 453.875,40.3125 454.125,40.1563 C454.2813,40.0625 454.4063,40.0469 454.8438,40.0469 L462.4688,40.0469 L462.4688,42.5938 C462.4688,43.0625 462.4375,43.2031 462.3281,43.375 C462.1563,43.5938 461.8906,43.7344 461.625,43.7344 C461.3438,43.7344 461.0625,43.5781 460.8906,43.3281 C460.8125,43.1719 460.7813,43 460.7813,42.5938 L460.7813,41.7344 L456.7969,41.7344 L456.7969,44.1406 L458.25,44.1406 L458.25,44.0156 C458.25,43.5625 458.2813,43.4063 458.3906,43.2344 C458.5625,43.0156 458.8281,42.875 459.0781,42.875 C459.5313,42.875 459.8438,43.1875 459.9063,43.6563 C459.9219,43.8125 459.9219,43.8594 459.9219,44.0156 L459.9219,45.9375 C459.9219,46.3906 459.8906,46.5469 459.7656,46.7031 C459.6094,46.9219 459.3438,47.0625 459.0938,47.0625 C458.7969,47.0625 458.5156,46.9063 458.3594,46.6563 C458.2813,46.5 458.25,46.3438 458.25,45.9375 L458.25,45.8281 Z "/><text fill="#000000" font-family="sans-serif" font-size="12" lengthAdjust="spacingAndGlyphs" textLength="64" x="472.5" y="49.1074">CardRarity</text><line style="stroke: #A80036; stroke-width: 1.5;" x1="444.5" x2="538.5" y1="60.9531" y2="60.9531"/><text fill="#000000" font-family="sans-serif" font-size="11" lengthAdjust="spacingAndGlyphs" textLength="51" x="449.5" y="75.1636">Common</text><text fill="#000000" font-family="sans-serif" font-size="11" lengthAdjust="spacingAndGlyphs" textLength="64" x="449.5" y="87.9683">Uncommon</text><text fill="#000000" font-family="sans-serif" font-size="11" lengthAdjust="spacingAndGlyphs" textLength="26" x="449.5" y="100.7729">Rare</text><text fill="#000000" font-family="sans-serif" font-size="11" lengthAdjust="spacingAndGlyphs" textLength="12" x="449.5" y="113.5776">...</text><line style="stroke: #A80036; stroke-width: 1.5;" x1="444.5" x2="538.5" y1="120.1719" y2="120.1719"/><!--class ClanId--><rect fill="#FEFECE" filter="url(#f1q78rldpujh9f)" height="99.2188" id="ClanId" style="stroke: #A80036; stroke-width: 1.5;" width="70" x="574.5" y="28.9531"/><ellipse cx="589.5" cy="44.9531" fill="#EB937F" rx="11" ry="11" style="stroke: #A80036; stroke-width: 1.0;"/><path d="M587.7969,45.8281 L587.7969,48.25 L592.1563,48.25 L592.1563,47.375 C592.1563,46.8906 592.1875,46.75 592.2969,46.5938 C592.4688,46.3438 592.7344,46.2344 593,46.2344 C593.2813,46.2344 593.5625,46.3906 593.7344,46.6406 C593.8125,46.7969 593.8438,46.9375 593.8438,47.375 L593.8438,49.9531 L585.8438,49.9531 C585.4531,49.9531 585.2188,49.9063 585.0781,49.7813 C584.8594,49.625 584.7188,49.375 584.7188,49.1094 C584.7188,48.8125 584.875,48.5469 585.125,48.375 C585.2813,48.2656 585.4375,48.25 585.8438,48.25 L586.0938,48.25 L586.0938,41.7344 L585.8438,41.7344 C585.4219,41.7344 585.2344,41.7031 585.0781,41.5938 C584.8594,41.4219 584.7188,41.1719 584.7188,40.8906 C584.7188,40.6094 584.875,40.3125 585.125,40.1563 C585.2813,40.0625 585.4063,40.0469 585.8438,40.0469 L593.4688,40.0469 L593.4688,42.5938 C593.4688,43.0625 593.4375,43.2031 593.3281,43.375 C593.1563,43.5938 592.8906,43.7344 592.625,43.7344 C592.3438,43.7344 592.0625,43.5781 591.8906,43.3281 C591.8125,43.1719 591.7813,43 591.7813,42.5938 L591.7813,41.7344 L587.7969,41.7344 L587.7969,44.1406 L589.25,44.1406 L589.25,44.0156 C589.25,43.5625 589.2813,43.4063 589.3906,43.2344 C589.5625,43.0156 589.8281,42.875 590.0781,42.875 C590.5313,42.875 590.8438,43.1875 590.9063,43.6563 C590.9219,43.8125 590.9219,43.8594 590.9219,44.0156 L590.9219,45.9375 C590.9219,46.3906 590.8906,46.5469 590.7656,46.7031 C590.6094,46.9219 590.3438,47.0625 590.0938,47.0625 C589.7969,47.0625 589.5156,46.9063 589.3594,46.6563 C589.2813,46.5 589.25,46.3438 589.25,45.9375 L589.25,45.8281 Z "/><text fill="#000000" font-family="sans-serif" font-size="12" lengthAdjust="spacingAndGlyphs" textLength="38" x="603.5" y="49.1074">ClanId</text><line style="stroke: #A80036; stroke-width: 1.5;" x1="575.5" x2="643.5" y1="60.9531" y2="60.9531"/><text fill="#000000" font-family="sans-serif" font-size="11" lengthAdjust="spacingAndGlyphs" textLength="44" x="580.5" y="75.1636">AllStars</text><text fill="#000000" font-family="sans-serif" font-size="11" lengthAdjust="spacingAndGlyphs" textLength="48" x="580.5" y="87.9683">Bangers</text><text fill="#000000" font-family="sans-serif" font-size="11" lengthAdjust="spacingAndGlyphs" textLength="43" x="580.5" y="100.7729">Berzerk</text><text fill="#000000" font-family="sans-serif" font-size="11" lengthAdjust="spacingAndGlyphs" textLength="12" x="580.5" y="113.5776">...</text><line style="stroke: #A80036; stroke-width: 1.5;" x1="575.5" x2="643.5" y1="120.1719" y2="120.1719"/><!--class SkillPrefix--><rect fill="#FEFECE" filter="url(#f1q78rldpujh9f)" height="99.2188" id="SkillPrefix" style="stroke: #A80036; stroke-width: 1.5;" width="90" x="446.5" y="204.9531"/><ellipse cx="461.5" cy="220.9531" fill="#EB937F" rx="11" ry="11" style="stroke: #A80036; stroke-width: 1.0;"/><path d="M459.7969,221.8281 L459.7969,224.25 L464.1563,224.25 L464.1563,223.375 C464.1563,222.8906 464.1875,222.75 464.2969,222.5938 C464.4688,222.3438 464.7344,222.2344 465,222.2344 C465.2813,222.2344 465.5625,222.3906 465.7344,222.6406 C465.8125,222.7969 465.8438,222.9375 465.8438,223.375 L465.8438,225.9531 L457.8438,225.9531 C457.4531,225.9531 457.2188,225.9063 457.0781,225.7813 C456.8594,225.625 456.7188,225.375 456.7188,225.1094 C456.7188,224.8125 456.875,224.5469 457.125,224.375 C457.2813,224.2656 457.4375,224.25 457.8438,224.25 L458.0938,224.25 L458.0938,217.7344 L457.8438,217.7344 C457.4219,217.7344 457.2344,217.7031 457.0781,217.5938 C456.8594,217.4219 456.7188,217.1719 456.7188,216.8906 C456.7188,216.6094 456.875,216.3125 457.125,216.1563 C457.2813,216.0625 457.4063,216.0469 457.8438,216.0469 L465.4688,216.0469 L465.4688,218.5938 C465.4688,219.0625 465.4375,219.2031 465.3281,219.375 C465.1563,219.5938 464.8906,219.7344 464.625,219.7344 C464.3438,219.7344 464.0625,219.5781 463.8906,219.3281 C463.8125,219.1719 463.7813,219 463.7813,218.5938 L463.7813,217.7344 L459.7969,217.7344 L459.7969,220.1406 L461.25,220.1406 L461.25,220.0156 C461.25,219.5625 461.2813,219.4063 461.3906,219.2344 C461.5625,219.0156 461.8281,218.875 462.0781,218.875 C462.5313,218.875 462.8438,219.1875 462.9063,219.6563 C462.9219,219.8125 462.9219,219.8594 462.9219,220.0156 L462.9219,221.9375 C462.9219,222.3906 462.8906,222.5469 462.7656,222.7031 C462.6094,222.9219 462.3438,223.0625 462.0938,223.0625 C461.7969,223.0625 461.5156,222.9063 461.3594,222.6563 C461.2813,222.5 461.25,222.3438 461.25,221.9375 L461.25,221.8281 Z "/><text fill="#000000" font-family="sans-serif" font-size="12" lengthAdjust="spacingAndGlyphs" textLength="58" x="475.5" y="225.1074">SkillPrefix</text><line style="stroke: #A80036; stroke-width: 1.5;" x1="447.5" x2="535.5" y1="236.9531" y2="236.9531"/><text fill="#000000" font-family="sans-serif" font-size="11" lengthAdjust="spacingAndGlyphs" textLength="51" x="452.5" y="251.1636">Backlash</text><text fill="#000000" font-family="sans-serif" font-size="11" lengthAdjust="spacingAndGlyphs" textLength="32" x="452.5" y="263.9683">Brawl</text><text fill="#000000" font-family="sans-serif" font-size="11" lengthAdjust="spacingAndGlyphs" textLength="63" x="452.5" y="276.7729">Confidence</text><text fill="#000000" font-family="sans-serif" font-size="11" lengthAdjust="spacingAndGlyphs" textLength="12" x="452.5" y="289.5776">...</text><line style="stroke: #A80036; stroke-width: 1.5;" x1="447.5" x2="535.5" y1="296.1719" y2="296.1719"/><!--class SkillSuffix--><rect fill="#FEFECE" filter="url(#f1q78rldpujh9f)" height="99.2188" id="SkillSuffix" style="stroke: #A80036; stroke-width: 1.5;" width="142" x="571.5" y="204.9531"/><ellipse cx="610.35" cy="220.9531" fill="#EB937F" rx="11" ry="11" style="stroke: #A80036; stroke-width: 1.0;"/><path d="M608.6469,221.8281 L608.6469,224.25 L613.0063,224.25 L613.0063,223.375 C613.0063,222.8906 613.0375,222.75 613.1469,222.5938 C613.3188,222.3438 613.5844,222.2344 613.85,222.2344 C614.1313,222.2344 614.4125,222.3906 614.5844,222.6406 C614.6625,222.7969 614.6938,222.9375 614.6938,223.375 L614.6938,225.9531 L606.6938,225.9531 C606.3031,225.9531 606.0688,225.9063 605.9281,225.7813 C605.7094,225.625 605.5688,225.375 605.5688,225.1094 C605.5688,224.8125 605.725,224.5469 605.975,224.375 C606.1313,224.2656 606.2875,224.25 606.6938,224.25 L606.9438,224.25 L606.9438,217.7344 L606.6938,217.7344 C606.2719,217.7344 606.0844,217.7031 605.9281,217.5938 C605.7094,217.4219 605.5688,217.1719 605.5688,216.8906 C605.5688,216.6094 605.725,216.3125 605.975,216.1563 C606.1313,216.0625 606.2563,216.0469 606.6938,216.0469 L614.3188,216.0469 L614.3188,218.5938 C614.3188,219.0625 614.2875,219.2031 614.1781,219.375 C614.0063,219.5938 613.7406,219.7344 613.475,219.7344 C613.1938,219.7344 612.9125,219.5781 612.7406,219.3281 C612.6625,219.1719 612.6313,219 612.6313,218.5938 L612.6313,217.7344 L608.6469,217.7344 L608.6469,220.1406 L610.1,220.1406 L610.1,220.0156 C610.1,219.5625 610.1313,219.4063 610.2406,219.2344 C610.4125,219.0156 610.6781,218.875 610.9281,218.875 C611.3813,218.875 611.6938,219.1875 611.7563,219.6563 C611.7719,219.8125 611.7719,219.8594 611.7719,220.0156 L611.7719,221.9375 C611.7719,222.3906 611.7406,222.5469 611.6156,222.7031 C611.4594,222.9219 611.1938,223.0625 610.9438,223.0625 C610.6469,223.0625 610.3656,222.9063 610.2094,222.6563 C610.1313,222.5 610.1,222.3438 610.1,221.9375 L610.1,221.8281 Z "/><text fill="#000000" font-family="sans-serif" font-size="12" lengthAdjust="spacingAndGlyphs" textLength="57" x="629.65" y="225.1074">SkillSuffix</text><line style="stroke: #A80036; stroke-width: 1.5;" x1="572.5" x2="712.5" y1="236.9531" y2="236.9531"/><text fill="#000000" font-family="sans-serif" font-size="11" lengthAdjust="spacingAndGlyphs" textLength="117" x="577.5" y="251.1636">CancelAttackModifier</text><text fill="#000000" font-family="sans-serif" font-size="11" lengthAdjust="spacingAndGlyphs" textLength="130" x="577.5" y="263.9683">CancelDamageModifier</text><text fill="#000000" font-family="sans-serif" font-size="11" lengthAdjust="spacingAndGlyphs" textLength="77" x="577.5" y="276.7729">CancelLeader</text><text fill="#000000" font-family="sans-serif" font-size="11" lengthAdjust="spacingAndGlyphs" textLength="12" x="577.5" y="289.5776">...</text><line style="stroke: #A80036; stroke-width: 1.5;" x1="572.5" x2="712.5" y1="296.1719" y2="296.1719"/><!--class CardDefinition--><rect fill="#FEFECE" filter="url(#f1q78rldpujh9f)" height="99.2188" id="CardDefinition" style="stroke: #A80036; stroke-width: 1.5;" width="143" x="6" y="204.9531"/><ellipse cx="31.35" cy="220.9531" fill="#ADD1B2" rx="11" ry="11" style="stroke: #A80036; stroke-width: 1.0;"/><path d="M33.6938,216.625 L33.8656,216.7031 C34.0844,216.3906 34.2875,216.2969 34.5844,216.2969 C34.8813,216.2969 35.1625,216.4375 35.3188,216.7031 C35.4125,216.8594 35.4281,216.9844 35.4281,217.4219 L35.4281,218.8438 C35.4281,219.2656 35.3969,219.4531 35.2875,219.6094 C35.1156,219.8281 34.85,219.9688 34.5844,219.9688 C34.3656,219.9688 34.1313,219.8594 33.9906,219.7188 C33.85,219.5938 33.8188,219.4688 33.7563,219.0625 C33.6625,218.6563 33.4906,218.4375 33.0063,218.1563 C32.5375,217.9063 31.9281,217.75 31.35,217.75 C29.6156,217.75 28.3656,219.0625 28.3656,220.8438 L28.3656,221.9375 C28.3656,223.6406 29.6625,224.7344 31.7094,224.7344 C32.475,224.7344 33.1625,224.6094 33.5844,224.3438 C33.7719,224.25 33.7719,224.25 34.225,223.7656 C34.4125,223.5781 34.6156,223.5 34.8344,223.5 C35.3031,223.5 35.6938,223.8906 35.6938,224.3438 C35.6938,224.7344 35.3656,225.1875 34.7875,225.5938 C34.0375,226.1406 32.8813,226.4375 31.6625,226.4375 C28.7719,226.4375 26.6625,224.5469 26.6625,221.9688 L26.6625,220.8438 C26.6625,218.125 28.6625,216.0469 31.2875,216.0469 C32.1625,216.0469 32.7563,216.1875 33.6938,216.625 Z "/><text fill="#000000" font-family="sans-serif" font-size="12" lengthAdjust="spacingAndGlyphs" textLength="88" x="47.65" y="225.1074">CardDefinition</text><line style="stroke: #A80036; stroke-width: 1.5;" x1="7" x2="148" y1="236.9531" y2="236.9531"/><ellipse cx="17" cy="248.8555" fill="none" rx="3" ry="3" style="stroke: #038048; stroke-width: 1.0;"/><text fill="#000000" font-family="sans-serif" font-size="11" lengthAdjust="spacingAndGlyphs" textLength="28" x="26" y="251.1636">Int id</text><ellipse cx="17" cy="261.6602" fill="none" rx="3" ry="3" style="stroke: #038048; stroke-width: 1.0;"/><text fill="#000000" font-family="sans-serif" font-size="11" lengthAdjust="spacingAndGlyphs" textLength="70" x="26" y="263.9683">String name</text><ellipse cx="17" cy="274.4648" fill="none" rx="3" ry="3" style="stroke: #038048; stroke-width: 1.0;"/><text fill="#000000" font-family="sans-serif" font-size="11" lengthAdjust="spacingAndGlyphs" textLength="117" x="26" y="276.7729">Int abilityUnlockLevel</text><ellipse cx="17" cy="287.2695" fill="none" rx="3" ry="3" style="stroke: #038048; stroke-width: 1.0;"/><text fill="#000000" font-family="sans-serif" font-size="11" lengthAdjust="spacingAndGlyphs" textLength="93" x="26" y="289.5776">CardRarity rarity</text><line style="stroke: #A80036; stroke-width: 1.5;" x1="7" x2="148" y1="296.1719" y2="296.1719"/><!--class Clan--><rect fill="#FEFECE" filter="url(#f1q78rldpujh9f)" height="73.6094" id="Clan" style="stroke: #A80036; stroke-width: 1.5;" width="96" x="233.5" y="41.4531"/><ellipse cx="265.15" cy="57.4531" fill="#ADD1B2" rx="11" ry="11" style="stroke: #A80036; stroke-width: 1.0;"/><path d="M267.4938,53.125 L267.6656,53.2031 C267.8844,52.8906 268.0875,52.7969 268.3844,52.7969 C268.6813,52.7969 268.9625,52.9375 269.1188,53.2031 C269.2125,53.3594 269.2281,53.4844 269.2281,53.9219 L269.2281,55.3438 C269.2281,55.7656 269.1969,55.9531 269.0875,56.1094 C268.9156,56.3281 268.65,56.4688 268.3844,56.4688 C268.1656,56.4688 267.9313,56.3594 267.7906,56.2188 C267.65,56.0938 267.6188,55.9688 267.5563,55.5625 C267.4625,55.1563 267.2906,54.9375 266.8063,54.6563 C266.3375,54.4063 265.7281,54.25 265.15,54.25 C263.4156,54.25 262.1656,55.5625 262.1656,57.3438 L262.1656,58.4375 C262.1656,60.1406 263.4625,61.2344 265.5094,61.2344 C266.275,61.2344 266.9625,61.1094 267.3844,60.8438 C267.5719,60.75 267.5719,60.75 268.025,60.2656 C268.2125,60.0781 268.4156,60 268.6344,60 C269.1031,60 269.4938,60.3906 269.4938,60.8438 C269.4938,61.2344 269.1656,61.6875 268.5875,62.0938 C267.8375,62.6406 266.6813,62.9375 265.4625,62.9375 C262.5719,62.9375 260.4625,61.0469 260.4625,58.4688 L260.4625,57.3438 C260.4625,54.625 262.4625,52.5469 265.0875,52.5469 C265.9625,52.5469 266.5563,52.6875 267.4938,53.125 Z "/><text fill="#000000" font-family="sans-serif" font-size="12" lengthAdjust="spacingAndGlyphs" textLength="27" x="282.85" y="61.6074">Clan</text><line style="stroke: #A80036; stroke-width: 1.5;" x1="234.5" x2="328.5" y1="73.4531" y2="73.4531"/><ellipse cx="244.5" cy="85.3555" fill="none" rx="3" ry="3" style="stroke: #038048; stroke-width: 1.0;"/><text fill="#000000" font-family="sans-serif" font-size="11" lengthAdjust="spacingAndGlyphs" textLength="49" x="253.5" y="87.6636">ClanId id</text><ellipse cx="244.5" cy="98.1602" fill="none" rx="3" ry="3" style="stroke: #038048; stroke-width: 1.0;"/><text fill="#000000" font-family="sans-serif" font-size="11" lengthAdjust="spacingAndGlyphs" textLength="70" x="253.5" y="100.4683">String name</text><line style="stroke: #A80036; stroke-width: 1.5;" x1="234.5" x2="328.5" y1="107.0625" y2="107.0625"/><!--class CardStats--><rect fill="#FEFECE" filter="url(#f1q78rldpujh9f)" height="86.4141" id="CardStats" style="stroke: #A80036; stroke-width: 1.5;" width="94" x="78.5" y="400.4531"/><ellipse cx="93.5" cy="416.4531" fill="#ADD1B2" rx="11" ry="11" style="stroke: #A80036; stroke-width: 1.0;"/><path d="M95.8438,412.125 L96.0156,412.2031 C96.2344,411.8906 96.4375,411.7969 96.7344,411.7969 C97.0313,411.7969 97.3125,411.9375 97.4688,412.2031 C97.5625,412.3594 97.5781,412.4844 97.5781,412.9219 L97.5781,414.3438 C97.5781,414.7656 97.5469,414.9531 97.4375,415.1094 C97.2656,415.3281 97,415.4688 96.7344,415.4688 C96.5156,415.4688 96.2813,415.3594 96.1406,415.2188 C96,415.0938 95.9688,414.9688 95.9063,414.5625 C95.8125,414.1563 95.6406,413.9375 95.1563,413.6563 C94.6875,413.4063 94.0781,413.25 93.5,413.25 C91.7656,413.25 90.5156,414.5625 90.5156,416.3438 L90.5156,417.4375 C90.5156,419.1406 91.8125,420.2344 93.8594,420.2344 C94.625,420.2344 95.3125,420.1094 95.7344,419.8438 C95.9219,419.75 95.9219,419.75 96.375,419.2656 C96.5625,419.0781 96.7656,419 96.9844,419 C97.4531,419 97.8438,419.3906 97.8438,419.8438 C97.8438,420.2344 97.5156,420.6875 96.9375,421.0938 C96.1875,421.6406 95.0313,421.9375 93.8125,421.9375 C90.9219,421.9375 88.8125,420.0469 88.8125,417.4688 L88.8125,416.3438 C88.8125,413.625 90.8125,411.5469 93.4375,411.5469 C94.3125,411.5469 94.9063,411.6875 95.8438,412.125 Z "/><text fill="#000000" font-family="sans-serif" font-size="12" lengthAdjust="spacingAndGlyphs" textLength="62" x="107.5" y="420.6074">CardStats</text><line style="stroke: #A80036; stroke-width: 1.5;" x1="79.5" x2="171.5" y1="432.4531" y2="432.4531"/><ellipse cx="89.5" cy="444.3555" fill="none" rx="3" ry="3" style="stroke: #038048; stroke-width: 1.0;"/><text fill="#000000" font-family="sans-serif" font-size="11" lengthAdjust="spacingAndGlyphs" textLength="44" x="98.5" y="446.6636">Int level</text><ellipse cx="89.5" cy="457.1602" fill="none" rx="3" ry="3" style="stroke: #038048; stroke-width: 1.0;"/><text fill="#000000" font-family="sans-serif" font-size="11" lengthAdjust="spacingAndGlyphs" textLength="53" x="98.5" y="459.4683">Int power</text><ellipse cx="89.5" cy="469.9648" fill="none" rx="3" ry="3" style="stroke: #038048; stroke-width: 1.0;"/><text fill="#000000" font-family="sans-serif" font-size="11" lengthAdjust="spacingAndGlyphs" textLength="64" x="98.5" y="472.2729">Int damage</text><line style="stroke: #A80036; stroke-width: 1.5;" x1="79.5" x2="171.5" y1="478.8672" y2="478.8672"/><!--class Skill--><rect fill="#FEFECE" filter="url(#f1q78rldpujh9f)" height="99.2188" id="Skill" style="stroke: #A80036; stroke-width: 1.5;" width="117" x="223" y="204.9531"/><ellipse cx="265.45" cy="220.9531" fill="#ADD1B2" rx="11" ry="11" style="stroke: #A80036; stroke-width: 1.0;"/><path d="M267.7938,216.625 L267.9656,216.7031 C268.1844,216.3906 268.3875,216.2969 268.6844,216.2969 C268.9813,216.2969 269.2625,216.4375 269.4188,216.7031 C269.5125,216.8594 269.5281,216.9844 269.5281,217.4219 L269.5281,218.8438 C269.5281,219.2656 269.4969,219.4531 269.3875,219.6094 C269.2156,219.8281 268.95,219.9688 268.6844,219.9688 C268.4656,219.9688 268.2313,219.8594 268.0906,219.7188 C267.95,219.5938 267.9188,219.4688 267.8563,219.0625 C267.7625,218.6563 267.5906,218.4375 267.1063,218.1563 C266.6375,217.9063 266.0281,217.75 265.45,217.75 C263.7156,217.75 262.4656,219.0625 262.4656,220.8438 L262.4656,221.9375 C262.4656,223.6406 263.7625,224.7344 265.8094,224.7344 C266.575,224.7344 267.2625,224.6094 267.6844,224.3438 C267.8719,224.25 267.8719,224.25 268.325,223.7656 C268.5125,223.5781 268.7156,223.5 268.9344,223.5 C269.4031,223.5 269.7938,223.8906 269.7938,224.3438 C269.7938,224.7344 269.4656,225.1875 268.8875,225.5938 C268.1375,226.1406 266.9813,226.4375 265.7625,226.4375 C262.8719,226.4375 260.7625,224.5469 260.7625,221.9688 L260.7625,220.8438 C260.7625,218.125 262.7625,216.0469 265.3875,216.0469 C266.2625,216.0469 266.8563,216.1875 267.7938,216.625 Z "/><text fill="#000000" font-family="sans-serif" font-size="12" lengthAdjust="spacingAndGlyphs" textLength="24" x="285.55" y="225.1074">Skill</text><line style="stroke: #A80036; stroke-width: 1.5;" x1="224" x2="339" y1="236.9531" y2="236.9531"/><ellipse cx="234" cy="248.8555" fill="none" rx="3" ry="3" style="stroke: #038048; stroke-width: 1.0;"/><text fill="#000000" font-family="sans-serif" font-size="11" lengthAdjust="spacingAndGlyphs" textLength="91" x="243" y="251.1636">SkillPrefix prefix</text><ellipse cx="234" cy="261.6602" fill="none" rx="3" ry="3" style="stroke: #038048; stroke-width: 1.0;"/><text fill="#000000" font-family="sans-serif" font-size="11" lengthAdjust="spacingAndGlyphs" textLength="90" x="243" y="263.9683">SkillSuffix suffix</text><ellipse cx="234" cy="274.4648" fill="none" rx="3" ry="3" style="stroke: #038048; stroke-width: 1.0;"/><text fill="#000000" font-family="sans-serif" font-size="11" lengthAdjust="spacingAndGlyphs" textLength="24" x="243" y="276.7729">Int x</text><ellipse cx="234" cy="287.2695" fill="none" rx="3" ry="3" style="stroke: #038048; stroke-width: 1.0;"/><text fill="#000000" font-family="sans-serif" font-size="11" lengthAdjust="spacingAndGlyphs" textLength="24" x="243" y="289.5776">Int y</text><line style="stroke: #A80036; stroke-width: 1.5;" x1="224" x2="339" y1="296.1719" y2="296.1719"/><!--class CardInstance--><rect fill="#FEFECE" filter="url(#f1q78rldpujh9f)" height="124.8281" id="CardInstance" style="stroke: #A80036; stroke-width: 1.5;" width="115" x="224" y="380.9531"/><ellipse cx="239" cy="396.9531" fill="#ADD1B2" rx="11" ry="11" style="stroke: #A80036; stroke-width: 1.0;"/><path d="M241.3438,392.625 L241.5156,392.7031 C241.7344,392.3906 241.9375,392.2969 242.2344,392.2969 C242.5313,392.2969 242.8125,392.4375 242.9688,392.7031 C243.0625,392.8594 243.0781,392.9844 243.0781,393.4219 L243.0781,394.8438 C243.0781,395.2656 243.0469,395.4531 242.9375,395.6094 C242.7656,395.8281 242.5,395.9688 242.2344,395.9688 C242.0156,395.9688 241.7813,395.8594 241.6406,395.7188 C241.5,395.5938 241.4688,395.4688 241.4063,395.0625 C241.3125,394.6563 241.1406,394.4375 240.6563,394.1563 C240.1875,393.9063 239.5781,393.75 239,393.75 C237.2656,393.75 236.0156,395.0625 236.0156,396.8438 L236.0156,397.9375 C236.0156,399.6406 237.3125,400.7344 239.3594,400.7344 C240.125,400.7344 240.8125,400.6094 241.2344,400.3438 C241.4219,400.25 241.4219,400.25 241.875,399.7656 C242.0625,399.5781 242.2656,399.5 242.4844,399.5 C242.9531,399.5 243.3438,399.8906 243.3438,400.3438 C243.3438,400.7344 243.0156,401.1875 242.4375,401.5938 C241.6875,402.1406 240.5313,402.4375 239.3125,402.4375 C236.4219,402.4375 234.3125,400.5469 234.3125,397.9688 L234.3125,396.8438 C234.3125,394.125 236.3125,392.0469 238.9375,392.0469 C239.8125,392.0469 240.4063,392.1875 241.3438,392.625 Z "/><text fill="#000000" font-family="sans-serif" font-size="12" lengthAdjust="spacingAndGlyphs" textLength="83" x="253" y="401.1074">CardInstance</text><line style="stroke: #A80036; stroke-width: 1.5;" x1="225" x2="338" y1="412.9531" y2="412.9531"/><text fill="#000000" font-family="sans-serif" font-size="11" lengthAdjust="spacingAndGlyphs" textLength="101" x="230" y="427.1636">Int cardInstanceId</text><text fill="#000000" font-family="sans-serif" font-size="11" lengthAdjust="spacingAndGlyphs" textLength="82" x="230" y="439.9683">Int cardBaseId</text><text fill="#000000" font-family="sans-serif" font-size="11" lengthAdjust="spacingAndGlyphs" textLength="70" x="230" y="452.7729">String name</text><text fill="#000000" font-family="sans-serif" font-size="11" lengthAdjust="spacingAndGlyphs" textLength="68" x="230" y="465.5776">Int minLevel</text><text fill="#000000" font-family="sans-serif" font-size="11" lengthAdjust="spacingAndGlyphs" textLength="71" x="230" y="478.3823">Int maxLevel</text><text fill="#000000" font-family="sans-serif" font-size="11" lengthAdjust="spacingAndGlyphs" textLength="93" x="230" y="491.187">CardRarity rarity</text><line style="stroke: #A80036; stroke-width: 1.5;" x1="225" x2="338" y1="497.7813" y2="497.7813"/><!--class CardDrawed--><rect fill="#FEFECE" filter="url(#f1q78rldpujh9f)" height="60.8047" id="CardDrawed" style="stroke: #A80036; stroke-width: 1.5;" width="108" x="374.5" y="412.9531"/><ellipse cx="389.5" cy="428.9531" fill="#ADD1B2" rx="11" ry="11" style="stroke: #A80036; stroke-width: 1.0;"/><path d="M391.8438,424.625 L392.0156,424.7031 C392.2344,424.3906 392.4375,424.2969 392.7344,424.2969 C393.0313,424.2969 393.3125,424.4375 393.4688,424.7031 C393.5625,424.8594 393.5781,424.9844 393.5781,425.4219 L393.5781,426.8438 C393.5781,427.2656 393.5469,427.4531 393.4375,427.6094 C393.2656,427.8281 393,427.9688 392.7344,427.9688 C392.5156,427.9688 392.2813,427.8594 392.1406,427.7188 C392,427.5938 391.9688,427.4688 391.9063,427.0625 C391.8125,426.6563 391.6406,426.4375 391.1563,426.1563 C390.6875,425.9063 390.0781,425.75 389.5,425.75 C387.7656,425.75 386.5156,427.0625 386.5156,428.8438 L386.5156,429.9375 C386.5156,431.6406 387.8125,432.7344 389.8594,432.7344 C390.625,432.7344 391.3125,432.6094 391.7344,432.3438 C391.9219,432.25 391.9219,432.25 392.375,431.7656 C392.5625,431.5781 392.7656,431.5 392.9844,431.5 C393.4531,431.5 393.8438,431.8906 393.8438,432.3438 C393.8438,432.7344 393.5156,433.1875 392.9375,433.5938 C392.1875,434.1406 391.0313,434.4375 389.8125,434.4375 C386.9219,434.4375 384.8125,432.5469 384.8125,429.9688 L384.8125,428.8438 C384.8125,426.125 386.8125,424.0469 389.4375,424.0469 C390.3125,424.0469 390.9063,424.1875 391.8438,424.625 Z "/><text fill="#000000" font-family="sans-serif" font-size="12" lengthAdjust="spacingAndGlyphs" textLength="76" x="403.5" y="433.1074">CardDrawed</text><line style="stroke: #A80036; stroke-width: 1.5;" x1="375.5" x2="481.5" y1="444.9531" y2="444.9531"/><text fill="#000000" font-family="sans-serif" font-size="11" lengthAdjust="spacingAndGlyphs" textLength="96" x="380.5" y="459.1636">Int cardDrawedId</text><line style="stroke: #A80036; stroke-width: 1.5;" x1="375.5" x2="481.5" y1="465.7578" y2="465.7578"/><!--link Clan to CardDefinition--><path d="M239.231,115.5061 C211.851,138.8591 175.605,169.7751 144.367,196.4191 " fill="none" id="Clan-CardDefinition" style="stroke: #A80036; stroke-width: 1.0;"/><polygon fill="#A80036" points="134.419,204.9051,141.5798,204.0547,143.5489,197.1177,136.3882,197.9681,134.419,204.9051" style="stroke: #A80036; stroke-width: 1.0;"/><text fill="#000000" font-family="sans-serif" font-size="13" lengthAdjust="spacingAndGlyphs" textLength="0" x="231.8989" y="134.9955"/><text fill="#000000" font-family="sans-serif" font-size="13" lengthAdjust="spacingAndGlyphs" textLength="8" x="133.8607" y="193.9436">1</text><!--link CardDefinition to Skill--><path d="M162.338,254.4531 C182.688,254.4531 203.976,254.4531 222.836,254.4531 " fill="none" id="CardDefinition-Skill" style="stroke: #A80036; stroke-width: 1.0;"/><polygon fill="#A80036" points="149.136,254.4531,155.136,258.4531,161.136,254.4531,155.136,250.4531,149.136,254.4531" style="stroke: #A80036; stroke-width: 1.0;"/><text fill="#000000" font-family="sans-serif" font-size="13" lengthAdjust="spacingAndGlyphs" textLength="37" x="167.5" y="247.52">ability</text><text fill="#000000" font-family="sans-serif" font-size="13" lengthAdjust="spacingAndGlyphs" textLength="8" x="156.936" y="250.7422">1</text><text fill="#000000" font-family="sans-serif" font-size="13" lengthAdjust="spacingAndGlyphs" textLength="0" x="215.0634" y="250.5536"/><!--link CardDefinition to CardStats--><path d="M93.2345,316.7521 C100.2662,344.1461 108.376,375.7421 114.706,400.4031 " fill="none" id="CardDefinition-CardStats" style="stroke: #A80036; stroke-width: 1.0;"/><polygon fill="#A80036" points="89.9861,304.0971,87.6038,310.9034,92.9702,315.7202,95.3525,308.9139,89.9861,304.0971" style="stroke: #A80036; stroke-width: 1.0;"/><text fill="#000000" font-family="sans-serif" font-size="13" lengthAdjust="spacingAndGlyphs" textLength="24" x="66.0545" y="324.1939">2..5</text><text fill="#000000" font-family="sans-serif" font-size="13" lengthAdjust="spacingAndGlyphs" textLength="0" x="112.667" y="389.3912"/><!--link Clan to Skill--><path d="M281.5,128.5891 C281.5,152.4771 281.5,181.0961 281.5,204.9051 " fill="none" id="Clan-Skill" style="stroke: #A80036; stroke-width: 1.0;"/><polygon fill="#A80036" points="281.5,115.5061,277.5,121.5061,281.5,127.5061,285.5,121.5061,281.5,115.5061" style="stroke: #A80036; stroke-width: 1.0;"/><text fill="#000000" font-family="sans-serif" font-size="13" lengthAdjust="spacingAndGlyphs" textLength="39" x="282.5" y="171.02">bonus</text><text fill="#000000" font-family="sans-serif" font-size="13" lengthAdjust="spacingAndGlyphs" textLength="8" x="272.8375" y="134.9955">1</text><text fill="#000000" font-family="sans-serif" font-size="13" lengthAdjust="spacingAndGlyphs" textLength="0" x="281.2188" y="193.9436"/><!--link Skill to CardInstance--><path d="M281.5,304.0971 C281.5,323.4541 281.5,346.1731 281.5,367.5421 " fill="none" id="Skill-CardInstance" style="stroke: #A80036; stroke-width: 1.0;"/><polygon fill="#A80036" points="281.5,380.6311,285.5,374.6311,281.5,368.6311,277.5,374.6311,281.5,380.6311" style="stroke: #A80036; stroke-width: 1.0;"/><text fill="#000000" font-family="sans-serif" font-size="13" lengthAdjust="spacingAndGlyphs" textLength="37" x="282.5" y="347.02">ability</text><text fill="#000000" font-family="sans-serif" font-size="13" lengthAdjust="spacingAndGlyphs" textLength="0" x="281.2188" y="324.1939"/><text fill="#000000" font-family="sans-serif" font-size="13" lengthAdjust="spacingAndGlyphs" textLength="8" x="273.0625" y="370.0232">1</text><!--link Clan to CardInstance--><path d="M311.031,115.5911 C328.443,139.3801 348.734,172.0971 357.5,204.9531 C368.842,247.4661 368.426,261.3311 357.5,303.9531 C351.752,326.3781 341.532,349.0711 330.415,369.4181 " fill="none" id="Clan-CardInstance" style="stroke: #A80036; stroke-width: 1.0;"/><polygon fill="#A80036" points="323.982,380.7851,330.4183,377.5333,329.8922,370.3415,323.4559,373.5932,323.982,380.7851" style="stroke: #A80036; stroke-width: 1.0;"/><text fill="#000000" font-family="sans-serif" font-size="13" lengthAdjust="spacingAndGlyphs" textLength="0" x="315.5908" y="135.0945"/><text fill="#000000" font-family="sans-serif" font-size="13" lengthAdjust="spacingAndGlyphs" textLength="8" x="320.4315" y="369.7565">1</text><!--link CardStats to CardInstance--><path d="M172.727,443.4531 C185.341,443.4531 197.955,443.4531 210.569,443.4531 " fill="none" id="CardStats-CardInstance" style="stroke: #A80036; stroke-width: 1.0;"/><polygon fill="#A80036" points="223.714,443.4531,217.714,439.4531,211.714,443.4531,217.714,447.4531,223.714,443.4531" style="stroke: #A80036; stroke-width: 1.0;"/><text fill="#000000" font-family="sans-serif" font-size="13" lengthAdjust="spacingAndGlyphs" textLength="0" x="184.5726" y="439.3023"/><text fill="#000000" font-family="sans-serif" font-size="13" lengthAdjust="spacingAndGlyphs" textLength="8" x="208.1838" y="439.6245">1</text><!--link CardInstance to CardDrawed--><path d="M339.209,443.4531 C346.548,443.4531 353.887,443.4531 361.227,443.4531 " fill="none" id="CardInstance-CardDrawed" style="stroke: #A80036; stroke-width: 1.0;"/><polygon fill="#A80036" points="374.437,443.4531,368.437,439.4531,362.437,443.4531,368.437,447.4531,374.437,443.4531" style="stroke: #A80036; stroke-width: 1.0;"/><text fill="#000000" font-family="sans-serif" font-size="13" lengthAdjust="spacingAndGlyphs" textLength="0" x="350.8592" y="439.5786"/><text fill="#000000" font-family="sans-serif" font-size="13" lengthAdjust="spacingAndGlyphs" textLength="8" x="358.6348" y="439.5343">1</text><!--link CardRarity to ClanId--><!--link CardRarity to SkillPrefix--><!--link SkillPrefix to SkillSuffix--><!--
@startuml
title Card Models

enum CardRarity {
    Common
    Uncommon
    Rare
    ...
}

enum ClanId {
    AllStars 
    Bangers
    Berzerk 
    ...
}

enum SkillPrefix {
    Backlash
    Brawl
    Confidence
    ...
}

enum SkillSuffix {
    CancelAttackModifier
    CancelDamageModifier
    CancelLeader
    ...
}


class CardDefinition {
    +Int id
    +String name
    +Int abilityUnlockLevel
    +CardRarity rarity
}

class Clan {
    +ClanId id
    +String name
}

class CardStats {
    +Int level
    +Int power
    +Int damage
}

class Skill {
    +SkillPrefix prefix
    +SkillSuffix suffix
    +Int x
    +Int y
}

class CardInstance {
    Int cardInstanceId
    Int cardBaseId
    String name
    Int minLevel
    Int maxLevel
    CardRarity rarity
}

class CardDrawed {
    Int cardDrawedId
}


CardDefinition "1" *-up- " " Clan
CardDefinition "1" *-right- " " Skill: ability
CardDefinition "2..5" *-down- " " CardStats
Clan "1" *-right- " " Skill: bonus
CardInstance "1" *-left- " " Skill: ability
CardInstance "1" *-left- " " Clan
CardInstance "1" *-left- " " CardStats
CardDrawed "1" *-left- " " CardInstance
@enduml

PlantUML version 1.2018.12(Sun Oct 21 10:15:15 UTC 2018)
(GPL source distribution)
Java Runtime: Java(TM) SE Runtime Environment
JVM: Java HotSpot(TM) 64-Bit Server VM
Java Version: 1.7.0_25-b15
Operating System: Linux
Default Encoding: UTF-8
Language: en
Country: US
--></g></svg>